/vscmnt/brussel_pixiu_data/_data_brussel/112/vsc11236/PredSimResults/SUBJ11opt3D/weighted-trackIG/worker_02.mot
version=1
nRows=4
nColumns=50
inDegrees=yes
endheader
                time	         pelvis_tilt	         pelvis_list	     pelvis_rotation	           pelvis_tx	           pelvis_ty	           pelvis_tz	       hip_flexion_r	     hip_adduction_r	      hip_rotation_r	        knee_angle_r	       ankle_angle_r	         mtp_angle_r	       hip_flexion_l	     hip_adduction_l	      hip_rotation_l	        knee_angle_l	       ankle_angle_l	         mtp_angle_l	    lumbar_extension	      lumbar_bending	     lumbar_rotation	 ercspn_r/activation	 intobl_r/activation	 extobl_r/activation	    abd_r/activation	    add_r/activation	hamstrings_r/activation	bifemsh_r/activation	glut_max_r/activation	iliopsoas_r/activation	rect_fem_r/activation	  vasti_r/activation	gastroc_r/activation	 soleus_r/activation	tib_ant_r/activation	 ercspn_l/activation	 intobl_l/activation	 extobl_l/activation	    abd_l/activation	    add_l/activation	hamstrings_l/activation	bifemsh_l/activation	glut_max_l/activation	iliopsoas_l/activation	rect_fem_l/activation	  vasti_l/activation	gastroc_l/activation	 soleus_l/activation	tib_ant_l/activation	
          1.40944671	         -2.88390435	         -1.19902776	          6.23121826	          1.46582458	          0.94087096	         -0.00438847	         31.06536930	         -1.57119954	         -4.23384224	        -10.50400449	          1.43121224	          0.25672169	        -13.80041953	         -3.27533458	         -1.94687412	        -12.69890045	         12.33524654	         30.28257925	        -14.02705156	         -2.17227516	         -3.41706730	          0.02547861	          0.21591640	          0.06033020	          0.00999999	          0.23665203	          0.03351443	          0.10607469	          0.08505288	          0.09560531	          0.04010858	          0.01586727	          0.01000000	          0.00999999	          0.41460802	          0.01000004	          0.01000000	          0.00999999	          0.03546556	          0.03947503	          0.02011152	          0.22247185	          0.02421975	          0.19174754	          0.01000006	          0.01000000	          0.14082852	          0.31494560	          0.01234906	
          1.42354118	         -3.02023423	         -1.26742938	          6.27965333	          1.48490295	          0.93871736	         -0.00298208	         30.74165517	         -1.36335357	         -4.37706287	        -11.63545092	          0.95425512	          0.20992131	        -14.22981294	         -3.55720181	         -2.34445996	        -13.70150106	         11.48940190	         32.18352456	        -13.52665248	         -1.64142752	         -3.63342734	          0.02063200	          0.17484423	          0.04885401	          0.03469046	          0.19163541	          0.05267436	          0.08589686	          0.11239609	          0.07741899	          0.03247901	          0.01284895	          0.01234907	          0.01234906	          0.46476217	          0.01429329	          0.00999999	          0.01000002	          0.02871920	          0.03196598	          0.02777312	          0.18015273	          0.01961260	          0.15527278	          0.01000000	          0.00999999	          0.11403971	          0.29085071	          0.00999999	
          1.43763565	         -3.13575792	         -1.33575980	          6.30065608	          1.50423015	          0.93696116	         -0.00149297	         30.37477399	         -1.17247398	         -4.56605910	        -12.73824001	          0.28618161	          0.20195207	        -14.45904583	         -3.85329197	         -2.75392074	        -15.08957354	         10.45990270	         34.17575690	        -13.01140946	         -1.10681121	         -3.83805448	          0.02579765	          0.14158485	          0.03956086	          0.08102410	          0.22983081	          0.04840061	          0.06955731	          0.12422214	          0.06269212	          0.02630076	          0.01359290	          0.00999999	          0.00999999	          0.53682214	          0.02617001	          0.00999999	          0.01000000	          0.02325615	          0.02588532	          0.02249005	          0.14588357	          0.01588184	          0.13354140	          0.01000000	          0.00999999	          0.09234674	          0.26367332	          0.00999999	
          1.45173011	         -3.23026330	         -1.39284292	          6.29067352	          1.52348891	          0.93578609	          0.00008234	         30.10198815	         -1.00861786	         -4.82528512	        -14.00506112	         -0.44268886	          0.15994410	        -14.40001194	         -4.15464211	         -3.16934826	        -16.97178275	          9.21296529	         36.22778637	        -12.51957328	         -0.58312778	         -4.02522140	          0.03169489	          0.11465216	          0.03203547	          0.11405491	          0.26916842	          0.05468228	          0.05632592	          0.10640541	          0.05076664	          0.02129775	          0.09580180	          0.00999999	          0.00999999	          0.59166330	          0.05367927	          0.00999999	          0.00999999	          0.01883229	          0.07310762	          0.02816662	          0.11813319	          0.01286075	          0.10813878	          0.01000000	          0.00999999	          0.07478027	          0.22314850	          0.00999999	
